<svg xmlns="http://www.w3.org/2000/svg" width="800" height="600" viewBox="0 0 800 600">
  <defs>
    <style>
      path { fill: none; stroke: white; stroke-width: 1; opacity: 0.4; }
    </style>
  </defs>
  <!-- Topographic contour lines -->
  <path d="M0,300 Q100,250 200,280 Q300,310 400,260 Q500,210 600,240 Q700,270 800,230" />
  <path d="M0,340 Q100,290 200,320 Q300,350 400,300 Q500,250 600,280 Q700,310 800,270" />
  <path d="M0,380 Q100,330 200,360 Q300,390 400,340 Q500,290 600,320 Q700,350 800,310" />
  <path d="M0,260 Q100,210 200,240 Q300,270 400,220 Q500,170 600,200 Q700,230 800,190" />
  <path d="M0,220 Q100,170 200,200 Q300,230 400,180 Q500,130 600,160 Q700,190 800,150" />
  <path d="M0,420 Q100,370 200,400 Q300,430 400,380 Q500,330 600,360 Q700,390 800,350" />
  <path d="M0,460 Q100,410 200,440 Q300,470 400,420 Q500,370 600,400 Q700,430 800,390" />
  <path d="M0,500 Q100,450 200,480 Q300,510 400,460 Q500,410 600,440 Q700,470 800,430" />
  <path d="M0,180 Q100,130 200,160 Q300,190 400,140 Q500,90 600,120 Q700,150 800,110" />
  <path d="M0,140 Q100,90 200,120 Q300,150 400,100 Q500,50 600,80 Q700,110 800,70" />
  <path d="M0,540 Q100,490 200,520 Q300,550 400,500 Q500,450 600,480 Q700,510 800,470" />
  <path d="M0,580 Q100,530 200,560 Q300,590 400,540 Q500,490 600,520 Q700,550 800,510" />
  <!-- Cross contours -->
  <path d="M150,0 Q170,100 160,200 Q150,300 170,400 Q190,500 180,600" />
  <path d="M350,0 Q370,100 360,200 Q350,300 370,400 Q390,500 380,600" />
  <path d="M550,0 Q570,100 560,200 Q550,300 570,400 Q590,500 580,600" />
  <path d="M750,0 Q770,100 760,200 Q750,300 770,400 Q790,500 780,600" />
</svg>
